<?xml version="1.0" encoding="utf-8"?>
<!-- Generator: Adobe Illustrator 16.0.0, SVG Export Plug-In . SVG Version: 6.00 Build 0)  -->
<!DOCTYPE svg PUBLIC "-//W3C//DTD SVG 1.1//EN" "http://www.w3.org/Graphics/SVG/1.1/DTD/svg11.dtd">
<svg version="1.1" id="Ebene_1" xmlns="http://www.w3.org/2000/svg" xmlns:xlink="http://www.w3.org/1999/xlink" x="0px" y="0px"
	 width="411.5px" height="91px" viewBox="0 0 411.5 91" enable-background="new 0 0 411.5 91" xml:space="preserve">
<g enable-background="new    ">
	<path d="M22.002,61.839c4.519,0,4.519-4.449,4.519-8.969h8.934c0,10.335-3.714,16.326-13.488,16.326
		C9.74,69.196,8.549,57.81,8.549,45.093c0-12.157,1.751-22.002,13.453-22.002c11.701,0,13.453,9.845,13.453,22.002v1.051H17.518
		v2.242C17.518,53.571,16.958,61.839,22.002,61.839z M22.002,30.448c-4.625,0-4.484,6.586-4.484,11.211h8.969
		C26.487,37,26.592,30.448,22.002,30.448z"/>
	<path d="M65.698,8.026c2.172,0,3.293,0.141,5.535,0.42v6.657c-0.911-0.07-2.137-0.351-3.013-0.351
		c-3.223,0-3.714,2.383-3.714,5.605v3.363h6.727v6.727h-6.727v38.117h-8.969V30.448h-4.484v-6.727h4.484v-1.717
		C55.538,13.316,56.975,8.026,65.698,8.026z"/>
	<path d="M99.688,8.026c2.172,0,3.293,0.141,5.535,0.42v6.657c-0.911-0.07-2.137-0.351-3.013-0.351
		c-3.223,0-3.714,2.383-3.714,5.605v3.363h6.727v6.727h-6.727v38.117h-8.969V30.448h-4.484v-6.727h4.484v-1.717
		C89.527,13.316,90.964,8.026,99.688,8.026z"/>
	<path d="M127.687,69.196c-3.994,0-6.517-3.259-6.517-7.252V23.722h8.969v35.489c0,1.857,1.261,3.153,3.083,3.153
		c2.628,0,4.379-1.927,5.886-3.153V23.722h8.969v44.844h-8.969V63.73C135.919,66.568,133.047,69.196,127.687,69.196z"/>
	<path d="M168.72,68.565V5.784h8.969v62.781H168.72z"/>
	<path d="M210.451,23.091c5.15,0,7.602,2.103,9.669,5.29c1.472-2.732,4.029-5.29,8.269-5.29v7.357c-2.558,0-4.345,0.98-5.605,2.242
		c0.596,1.752,1.121,4.099,1.121,6.727c0,9.179-4.31,16.256-13.453,16.256c-0.981,0-1.962-0.105-2.838-0.245l-1.682-0.28
		c-0.42,0.771-1.227,1.787-1.227,2.873c0,3.258,8.654,2.907,11.842,3.328c6.025,0.806,11.842,2.627,11.842,9.459
		c0,8.373-7.463,11.176-15.695,11.176c-6.692,0-17.938-0.07-17.938-6.586c0-5.045,3.223-8.198,6.727-9.95
		c-2.067-0.561-4.484-1.821-4.484-3.924c0-3.363,2.908-6.656,4.484-8.653c-2.768-3.293-4.484-7.848-4.484-13.453
		C196.998,30.238,201.552,23.091,210.451,23.091z M220.541,72.034c0-0.386-0.035-0.771-0.141-1.156
		c-0.314-1.752-2.662-2.908-7.041-3.434l-7.393-0.876c-1.682,1.227-3.293,3.889-3.293,6.727c0,2.663,7.252,2.067,10.02,2.067
		C215.881,75.362,220.541,75.151,220.541,72.034z M210.451,29.327c-4.625,0-5.605,5.465-5.605,10.09c0,4.59,1.051,9.529,5.605,9.529
		c4.59,0,5.605-4.939,5.605-9.529C216.057,34.792,215.006,29.327,210.451,29.327z"/>
	<path d="M257.02,61.839c4.52,0,4.52-4.449,4.52-8.969h8.934c0,10.335-3.713,16.326-13.488,16.326
		c-12.227,0-13.418-11.387-13.418-24.104c0-12.157,1.752-22.002,13.453-22.002c11.702,0,13.453,9.845,13.453,22.002v1.051h-17.938
		v2.242C252.535,53.571,251.975,61.839,257.02,61.839z M257.02,30.448c-4.624,0-4.484,6.586-4.484,11.211h8.969
		C261.504,37,261.609,30.448,257.02,30.448z"/>
	<path d="M309.019,23.091c3.959,0,6.446,3.328,6.446,7.252v38.223h-8.969V34.933c0-2.838-0.455-4.484-3.363-4.484
		c-2.522,0-4.134,1.401-5.605,2.628v35.489h-8.969V23.722h8.969v4.835C300.681,25.684,303.658,23.091,309.019,23.091z"/>
	<path d="M348.195,61.839c4.484,0,4.484-4.484,4.484-8.969h8.969c0,9.845-3.468,16.326-13.453,16.326
		c-12.156,0-13.453-10.931-13.453-23.053s1.297-23.053,13.453-23.053c10.266,0,13.453,6.131,13.453,16.326h-8.969
		c0-4.204-0.35-9.354-4.484-9.354c-5.395,0-4.484,10.405-4.484,16.081C343.711,51.784,342.695,61.839,348.195,61.839z"/>
	<path d="M392.031,61.839c4.52,0,4.52-4.449,4.52-8.969h8.934c0,10.335-3.713,16.326-13.488,16.326
		c-12.227,0-13.418-11.387-13.418-24.104c0-12.157,1.752-22.002,13.453-22.002c11.702,0,13.453,9.845,13.453,22.002v1.051h-17.938
		v2.242C387.547,53.571,386.986,61.839,392.031,61.839z M392.031,30.448c-4.624,0-4.484,6.586-4.484,11.211h8.969
		C396.516,37,396.621,30.448,392.031,30.448z"/>
</g>
</svg>
