<?xml version="1.0" encoding="utf-8"?>
<!-- Generator: Adobe Illustrator 16.0.0, SVG Export Plug-In . SVG Version: 6.00 Build 0)  -->
<!DOCTYPE svg PUBLIC "-//W3C//DTD SVG 1.1//EN" "http://www.w3.org/Graphics/SVG/1.1/DTD/svg11.dtd">
<svg version="1.1" id="Layer_1" xmlns="http://www.w3.org/2000/svg" xmlns:xlink="http://www.w3.org/1999/xlink" x="0px" y="0px"
	 width="500px" height="500px" viewBox="0 0 500 500" enable-background="new 0 0 500 500" xml:space="preserve">
<g id="main">
	<a>
		<path id="youtube" fill="#00F20D" d="M293.02,446.521c0-5.721-0.066-11.438,0.028-17.146c0.05-2.834-0.866-4.287-3.96-4.265
			c-11.701,0.086-23.406,0.062-35.109,0.021c-2.541-0.009-3.733,1.021-3.729,3.632c0.042,11.839,0.042,23.684,0,35.521
			c-0.009,2.606,1.189,3.639,3.73,3.631c11.703-0.041,23.402-0.064,35.105,0.021c3.098,0.022,4.012-1.434,3.958-4.266
			C292.948,457.952,293.02,452.235,293.02,446.521z"/>
		<path id="youtube-icon" fill="#FFFFFF" d="M285.4,453.441c-2.135-0.146-6.894-0.146-9.024,0c-2.31,0.156-2.581,1.554-2.599,5.226
			c0.018,3.665,0.287,5.065,2.599,5.225c2.133,0.146,6.89,0.146,9.024,0c2.311-0.156,2.582-1.554,2.6-5.225
			C287.982,455.001,287.713,453.601,285.4,453.441z M279.109,461.037v-4.741l4.742,2.366L279.109,461.037z"/>
	</a>
	<a>
		<path id="twitter" fill="#00F20D" d="M338.667,400.948c0,5.579-0.088,11.159,0.035,16.729c0.063,3.071-1.021,4.46-4.248,4.437
			c-11.429-0.104-22.859-0.086-34.289-0.014c-2.967,0.021-4.133-1.19-4.112-4.14c0.074-11.43,0.092-22.855-0.011-34.289
			c-0.028-3.253,1.411-4.247,4.456-4.224c11.292,0.09,22.587,0.097,33.879-0.003c3.161-0.026,4.398,1.215,4.327,4.354
			C338.576,389.518,338.668,395.232,338.667,400.948z"/>
		<path id="twitter-icon" fill="#FFFFFF" d="M327.061,418.582c3.714,0,5.744-3.078,5.744-5.745c0-0.087,0-0.175-0.006-0.261
			c0.395-0.286,0.736-0.641,1.007-1.043c-0.369,0.161-0.759,0.27-1.158,0.317c0.42-0.253,0.736-0.65,0.888-1.119
			c-0.396,0.237-0.83,0.402-1.282,0.491c-0.764-0.813-2.043-0.852-2.857-0.088c-0.524,0.494-0.747,1.229-0.584,1.93
			c-1.624-0.081-3.136-0.848-4.161-2.111c-0.536,0.924-0.263,2.104,0.626,2.696c-0.322-0.01-0.637-0.097-0.918-0.253
			c0,0.008,0,0.016,0,0.024c0,0.962,0.679,1.789,1.62,1.979c-0.298,0.081-0.609,0.095-0.912,0.038
			c0.266,0.82,1.023,1.383,1.887,1.402c-0.715,0.561-1.598,0.865-2.506,0.864c-0.162,0-0.322-0.01-0.481-0.028
			C324.891,418.27,325.963,418.583,327.061,418.582"/>
	</a>
	<a>
		<path id="soundcloud" fill="#00F20D" d="M271.218,422.141c-5.571,0-11.145-0.065-16.715,0.029
			c-2.839,0.051-4.275-0.895-4.254-3.97c0.083-11.688,0.061-23.373,0.022-35.062c-0.009-2.547,1.043-3.729,3.641-3.723
			c11.822,0.039,23.646,0.04,35.469,0.001c2.611-0.009,3.629,1.21,3.62,3.739c-0.038,11.688-0.062,23.374,0.021,35.061
			c0.022,3.098-1.453,3.994-4.271,3.948C282.906,422.074,277.062,422.141,271.218,422.141z"/>
		<path id="soundcloud-icon" fill="#FFFFFF" d="M275.711,418.582h-0.755v-6.091c0.233-0.174,0.481-0.324,0.755-0.429V418.582z
			 M277.977,418.582h0.756v-6.964c-0.174,0.2-0.336,0.414-0.471,0.646l-0.285-0.139V418.582z M276.466,418.582h0.757v-6.68
			c-0.385-0.062-0.472-0.038-0.757-0.01V418.582z M273.445,418.582h0.756v-5.3c-0.235,0.346-0.418,0.731-0.521,1.159l-0.231-0.141
			v4.28L273.445,418.582L273.445,418.582z M271.182,414.619c-0.457,0.412-0.755,1.021-0.755,1.711c0,0.688,0.298,1.3,0.755,1.712
			V414.619z M285.434,414.111c-0.154-2.143-1.812-3.833-3.86-3.833c-0.771,0-1.483,0.247-2.087,0.662v7.642h6.861
			c1.213,0,2.197-1.052,2.197-2.345C288.545,414.551,286.908,413.389,285.434,414.111z M272.691,414.092
			c-0.229-0.019-0.396-0.021-0.756,0.092v4.297c0.338,0.106,0.479,0.104,0.756,0.104V414.092z"/>
	</a>
	<a>
		<path id="facebook" fill="#00F20D" d="M362.829,376.408c-5.573,0.001-11.149-0.092-16.72,0.037c-3.081,0.07-4.436-1.03-4.4-4.252
			c0.105-11.416,0.104-22.836,0-34.254c-0.028-3.176,1.233-4.324,4.355-4.297c11.417,0.101,22.835,0.086,34.253,0.01
			c2.896-0.021,4.207,1.021,4.187,4.039c-0.079,11.554-0.078,23.104,0.002,34.66c0.021,2.979-1.209,4.14-4.144,4.084
			C374.52,376.331,368.673,376.404,362.829,376.408z"/>
		<path id="facebook-icon" fill="#FFFFFF" d="M378.892,366.218h-1.021c-0.326,0-0.571,0.136-0.571,0.474v0.588h1.592l-0.127,1.593
			h-1.466v4.248h-1.592v-4.248h-1.062v-1.593h1.062v-1.02c0-1.074,0.564-1.634,1.838-1.634h1.347V366.218L378.892,366.218z"/>
	</a>
	<a>
		<path id="blog" fill="#00F20D" d="M338.745,355.443c-0.002,5.574-0.104,11.152,0.037,16.726c0.081,3.194-1.258,4.312-4.368,4.284
			c-11.422-0.1-22.844-0.086-34.266-0.008c-2.91,0.019-4.193-1.049-4.174-4.055c0.076-11.562,0.075-23.117,0-34.678
			c-0.021-2.988,1.229-4.093,4.15-4.068c11.421,0.078,22.846,0.109,34.266-0.021c3.486-0.04,4.479,1.482,4.396,4.688
			C338.642,344.02,338.747,349.732,338.745,355.443z"/>
		<path id="linkedin-icon" fill="#FFFFFF" d="M326.202,364.923c0,0.552-0.444,0.999-0.992,0.999s-0.991-0.447-0.991-0.999
			s0.443-1,0.991-1S326.202,364.371,326.202,364.923z M326.21,366.723h-1.999v6.396h1.999V366.723z M329.401,366.723h-1.986v6.396
			h1.986v-3.358c0-1.866,2.411-2.02,2.411,0v3.358h1.992v-4.051c0-3.15-3.565-3.036-4.403-1.485V366.723L329.401,366.723z"/>
	</a>
	<a>
		<path id="behance" fill="#00F20D" d="M292.979,355.25c-0.002,5.58-0.092,11.16,0.033,16.736c0.068,3.059-0.984,4.467-4.229,4.438
			c-11.432-0.105-22.86-0.105-34.29,0c-3.248,0.029-4.256-1.383-4.231-4.438c0.093-11.295,0.118-22.59-0.012-33.883
			c-0.039-3.444,1.41-4.479,4.648-4.444c11.158,0.112,22.317,0.144,33.479-0.013c3.646-0.051,4.762,1.438,4.65,4.867
			C292.854,344.087,292.979,349.671,292.979,355.25z"/>
		<path id="behance-icon" fill="#FFFFFF" d="M279.016,364.708c0.396,0,0.752,0.034,1.08,0.104c0.321,0.069,0.6,0.184,0.831,0.342
			c0.231,0.156,0.411,0.365,0.539,0.63c0.127,0.258,0.188,0.583,0.188,0.969c0,0.416-0.094,0.763-0.282,1.039
			c-0.188,0.278-0.47,0.506-0.843,0.683c0.509,0.146,0.885,0.403,1.135,0.77c0.25,0.367,0.374,0.809,0.374,1.324
			c0,0.418-0.081,0.777-0.241,1.084s-0.383,0.554-0.652,0.748c-0.272,0.191-0.586,0.336-0.938,0.427
			c-0.349,0.093-0.709,0.14-1.079,0.14h-4.001v-8.255h3.892v-0.004H279.016z M278.781,368.044c0.32,0,0.588-0.077,0.8-0.231
			c0.21-0.15,0.312-0.403,0.312-0.75c0-0.191-0.033-0.352-0.102-0.476c-0.07-0.122-0.164-0.218-0.281-0.285
			c-0.117-0.071-0.248-0.118-0.4-0.146c-0.149-0.029-0.307-0.041-0.467-0.041h-1.699v1.93L278.781,368.044L278.781,368.044z
			 M278.882,371.557c0.181,0,0.351-0.016,0.511-0.051c0.162-0.035,0.308-0.091,0.43-0.175c0.119-0.08,0.221-0.188,0.293-0.328
			c0.074-0.14,0.109-0.317,0.109-0.536c0-0.425-0.119-0.729-0.357-0.912c-0.239-0.182-0.557-0.271-0.949-0.271h-1.975v2.272H278.882
			L278.882,371.557z M284.627,371.529c0.247,0.242,0.602,0.361,1.062,0.361c0.332,0,0.617-0.082,0.855-0.25
			c0.239-0.166,0.383-0.347,0.439-0.529h1.445c-0.231,0.719-0.584,1.232-1.064,1.543c-0.475,0.311-1.055,0.466-1.731,0.466
			c-0.47,0-0.894-0.077-1.274-0.228c-0.381-0.149-0.697-0.365-0.965-0.644c-0.261-0.278-0.463-0.608-0.607-0.995
			c-0.145-0.385-0.214-0.812-0.214-1.275c0-0.446,0.075-0.862,0.22-1.248c0.148-0.388,0.354-0.723,0.625-1.002
			c0.271-0.283,0.594-0.506,0.969-0.668s0.788-0.242,1.248-0.242c0.506,0,0.948,0.098,1.327,0.295
			c0.379,0.195,0.688,0.46,0.933,0.791c0.244,0.33,0.416,0.711,0.524,1.136c0.108,0.423,0.146,0.866,0.116,1.33h-4.314
			C284.223,370.843,284.381,371.29,284.627,371.529z M286.514,368.389c-0.193-0.216-0.523-0.332-0.928-0.332
			c-0.263,0-0.48,0.045-0.652,0.135c-0.17,0.088-0.311,0.199-0.416,0.33c-0.106,0.133-0.18,0.271-0.221,0.42
			c-0.042,0.146-0.066,0.277-0.074,0.394h2.672C286.854,368.917,286.71,368.607,286.514,368.389z M283.886,365.264h3.347v0.814
			h-3.347V365.264z"/>
	</a>
	<path id="about" fill="#00F20D" d="M378.533,5.24c0.673-0.855,2.3-1.417,3.42-1.317c0.866,0.077,1.854,1.269,2.354,2.2
		c0.406,0.757,0.208,1.861,0.208,2.812c-0.001,78.257-0.026,156.516,0.044,234.772c0.01,3.821-1.073,5.278-5.068,5.266
		c-41.373-0.119-82.746-0.125-124.12-0.046c-3.654,0.006-5.051-1.101-5.045-4.895c0.088-48.724,0.251-97.448-0.116-146.169
		c-0.072-9.501,0.732-17.564,9.6-23.125L378.533,5.24z"/>
	<path id="work" fill="#00F20D" d="M247.323,489.883c0,1.463-0.141,2.927-0.291,5.826c-4.047-3.169-7.095-5.556-10.14-7.943
		c-19.886-15.598-39.799-31.164-59.65-46.806c-13.658-10.763-27.21-21.662-40.863-32.431c-2.539-2.002-3.736-4.244-3.731-7.61
		c0.099-59.317,0.082-118.635,0.107-177.951c0.003-5.397,0.143-5.512,5.474-5.514c34.546-0.013,69.093-0.017,103.64-0.015
		c5.231,0.001,5.517,0.513,5.383,5.546L247.323,489.883z"/>
	<path id="video" fill="#00F20D" d="M155.681,213.902c-28.708,0-57.415,0.001-86.123,0c-5.327,0-5.502-0.148-5.505-5.49
		c-0.013-30.75-0.016-61.499-0.01-92.249c0.001-5.316,0.157-5.48,5.529-5.482c57.417-0.019,114.834-0.028,172.252-0.028
		c5.344,0,5.492,0.15,5.493,5.512c0.009,30.75,0.005,61.499-0.009,92.247c-0.003,5.351-0.159,5.507-5.502,5.51
		c-28.709,0.013-57.417,0.005-86.125,0.005C155.681,213.92,155.681,213.912,155.681,213.902z"/>
	<path id="musica" fill="#00F20D" d="M256.307,330.646c-5.912,0-5.966-0.07-5.974-5.869c-0.007-6.123-0.038-12.245,0.006-18.367
		l-0.023-17.579c0.013-10.339,0.161-20.681,0.017-31.019c-0.052-3.715,1.272-4.987,4.991-4.982
		c56.325,0.068,112.646,0.033,168.978,0.021c2.585,0,5.171,0.058,7.754-0.037c2.805-0.104,3.929,1.199,3.871,3.933l0.047,69.373
		c0.041,3.362-1.237,4.612-4.562,4.522L256.307,330.646z"/>
</g>
</svg>
